<?xml version="1.0" encoding="UTF-8"?>
<svg id="Capa_1" xmlns="http://www.w3.org/2000/svg" version="1.1" viewBox="0 0 140.8 140.8">
  <!-- Generator: Adobe Illustrator 30.6.0, SVG Export Plug-In . SVG Version: 2.1.4 Build 109)  -->
  <defs>
    <style>
      .st0 {
        fill: #7fba2d;
      }

      .st1 {
        fill: #0b442e;
      }
    </style>
  </defs>
  <path class="st1" d="M70.4,8c34.4,0,62.4,28,62.4,62.4s-28,62.4-62.4,62.4S8,104.8,8,70.4,36,8,70.4,8M70.4,0C31.5,0,0,31.5,0,70.4s31.5,70.4,70.4,70.4,70.4-31.5,70.4-70.4S109.3,0,70.4,0h0Z"/>
  <g>
    <circle class="st0" cx="88.9" cy="52.6" r="16.7" transform="translate(17.2 126.9) rotate(-76.7)"/>
    <path class="st0" d="M56.3,113.5h0c-6.4,0-11.7-5.2-11.7-11.7v-56.6c0-6.4,5.2-11.7,11.7-11.7h0c6.4,0,11.7,5.2,11.7,11.7v56.6c0,6.4-5.2,11.7-11.7,11.7Z"/>
  </g>
</svg>